<?xml version="1.0" encoding="utf-8"?>
<!-- Svg Vector Icons : http://www.onlinewebfonts.com/icon -->
<!DOCTYPE svg PUBLIC "-//W3C//DTD SVG 1.1//EN" "http://www.w3.org/Graphics/SVG/1.1/DTD/svg11.dtd">
<svg version="1.1" xmlns="http://www.w3.org/2000/svg" xmlns:xlink="http://www.w3.org/1999/xlink" x="0px" y="0px" viewBox="0 0 256 256" enable-background="new 0 0 256 256" xml:space="preserve">
<metadata> Svg Vector Icons : http://www.onlinewebfonts.com/icon </metadata>
<g><g><path fill="white" d="M243.4,66.5c-4.2-4.3-12.3-3.1-18,2.6L128,166.5L30.5,69.1c-5.7-5.7-13.7-6.8-18-2.6c-4.2,4.3-3.1,12.3,2.6,18l102.6,102.6c0.6,0.6,1.3,0.9,1.9,1.4c0.3,0.4,0.3,0.8,0.7,1.2c1.7,1.7,4.1,2.3,6.6,2.3c0.4,0,0.7,0,1,0c0.4,0,0.7,0,1,0c2.6,0,4.9-0.6,6.6-2.3c0.3-0.3,0.4-0.8,0.7-1.2c0.6-0.5,1.3-0.8,1.9-1.4L240.8,84.5C246.5,78.8,247.7,70.8,243.4,66.5L243.4,66.5z"/></g></g>
</svg>